{
	"asset":{
		"generator":"Khronos glTF Blender I/O v4.3.47",
		"version":"2.0"
	},
	"scene":0,
	"scenes":[
		{
			"name":"Scene",
			"nodes":[
				0,
				1,
				2,
				3,
				4,
				5,
				6,
				7
			]
		}
	],
	"nodes":[
		{
			"mesh":0,
			"name":"mesh4_noesis_meshnode_0004",
			"scale":[
				0.050000011920928955,
				0.050000011920928955,
				0.050000011920928955
			]
		},
		{
			"mesh":1,
			"name":"mesh4_noesis_meshnode_0004.001",
			"scale":[
				0.050000011920928955,
				0.050000011920928955,
				0.050000011920928955
			]
		},
		{
			"mesh":2,
			"name":"mesh4_noesis_meshnode_0004.002",
			"scale":[
				0.050000011920928955,
				0.050000011920928955,
				0.050000011920928955
			]
		},
		{
			"mesh":3,
			"name":"mesh4_noesis_meshnode_0004.003",
			"scale":[
				0.050000011920928955,
				0.050000011920928955,
				0.050000011920928955
			]
		},
		{
			"mesh":4,
			"name":"mesh4_noesis_meshnode_0004.004",
			"scale":[
				0.050000011920928955,
				0.050000011920928955,
				0.050000011920928955
			]
		},
		{
			"mesh":5,
			"name":"mesh4_noesis_meshnode_0004.005",
			"scale":[
				0.050000011920928955,
				0.050000011920928955,
				0.050000011920928955
			]
		},
		{
			"mesh":6,
			"name":"mesh4_noesis_meshnode_0004.006",
			"scale":[
				0.050000011920928955,
				0.050000011920928955,
				0.050000011920928955
			]
		},
		{
			"mesh":7,
			"name":"mesh4_noesis_meshnode_0004.007",
			"scale":[
				0.050000011920928955,
				0.050000011920928955,
				0.050000011920928955
			]
		}
	],
	"materials":[
		{
			"name":"hltex004",
			"pbrMetallicRoughness":{
				"baseColorTexture":{
					"index":0
				},
				"metallicFactor":0
			}
		},
		{
			"name":"hltex003",
			"pbrMetallicRoughness":{
				"baseColorTexture":{
					"index":1
				},
				"metallicFactor":0
			}
		},
		{
			"doubleSided":true,
			"name":"SCREEN",
			"pbrMetallicRoughness":{
				"baseColorFactor":[
					0.8001724481582642,
					0,
					0.004697758704423904,
					1
				],
				"metallicFactor":0,
				"roughnessFactor":0.5
			}
		},
		{
			"name":"hltex000",
			"pbrMetallicRoughness":{
				"baseColorTexture":{
					"index":2
				},
				"metallicFactor":0
			}
		},
		{
			"name":"hltex001",
			"pbrMetallicRoughness":{
				"baseColorTexture":{
					"index":3
				},
				"metallicFactor":0
			}
		},
		{
			"name":"hltex002",
			"pbrMetallicRoughness":{
				"baseColorTexture":{
					"index":4
				},
				"metallicFactor":0
			}
		},
		{
			"name":"hltex005",
			"pbrMetallicRoughness":{
				"baseColorTexture":{
					"index":5
				},
				"metallicFactor":0
			}
		},
		{
			"name":"hltex006",
			"pbrMetallicRoughness":{
				"baseColorTexture":{
					"index":6
				},
				"metallicFactor":0
			}
		},
		{
			"name":"hltex007",
			"pbrMetallicRoughness":{
				"baseColorTexture":{
					"index":7
				},
				"metallicFactor":0
			}
		},
		{
			"name":"hltex008",
			"pbrMetallicRoughness":{
				"baseColorTexture":{
					"index":8
				},
				"metallicFactor":0
			}
		},
		{
			"name":"hltex009",
			"pbrMetallicRoughness":{
				"baseColorTexture":{
					"index":9
				},
				"metallicFactor":0
			}
		}
	],
	"meshes":[
		{
			"name":"mesh4",
			"primitives":[
				{
					"attributes":{
						"POSITION":0,
						"NORMAL":1,
						"TEXCOORD_0":2
					},
					"indices":3,
					"material":0
				},
				{
					"attributes":{
						"POSITION":4,
						"NORMAL":5,
						"TEXCOORD_0":6
					},
					"indices":7,
					"material":1
				},
				{
					"attributes":{
						"POSITION":8,
						"NORMAL":9,
						"TEXCOORD_0":10
					},
					"indices":11,
					"material":2
				}
			]
		},
		{
			"name":"mesh4.001",
			"primitives":[
				{
					"attributes":{
						"POSITION":12,
						"NORMAL":13,
						"TEXCOORD_0":14
					},
					"indices":15,
					"material":3
				},
				{
					"attributes":{
						"POSITION":16,
						"NORMAL":17,
						"TEXCOORD_0":18
					},
					"indices":19,
					"material":4
				},
				{
					"attributes":{
						"POSITION":20,
						"NORMAL":21,
						"TEXCOORD_0":22
					},
					"indices":11,
					"material":5
				}
			]
		},
		{
			"name":"mesh4.002",
			"primitives":[
				{
					"attributes":{
						"POSITION":23,
						"NORMAL":24,
						"TEXCOORD_0":25
					},
					"indices":26,
					"material":1
				}
			]
		},
		{
			"name":"mesh4.003",
			"primitives":[
				{
					"attributes":{
						"POSITION":27,
						"NORMAL":28,
						"TEXCOORD_0":29
					},
					"indices":30,
					"material":1
				}
			]
		},
		{
			"name":"mesh4.004",
			"primitives":[
				{
					"attributes":{
						"POSITION":31,
						"NORMAL":32,
						"TEXCOORD_0":33
					},
					"indices":34,
					"material":1
				}
			]
		},
		{
			"name":"mesh4.005",
			"primitives":[
				{
					"attributes":{
						"POSITION":35,
						"NORMAL":36,
						"TEXCOORD_0":37
					},
					"indices":38,
					"material":1
				},
				{
					"attributes":{
						"POSITION":39,
						"NORMAL":40,
						"TEXCOORD_0":41
					},
					"indices":42,
					"material":6
				}
			]
		},
		{
			"name":"mesh4.006",
			"primitives":[
				{
					"attributes":{
						"POSITION":43,
						"NORMAL":44,
						"TEXCOORD_0":45
					},
					"indices":46,
					"material":7
				},
				{
					"attributes":{
						"POSITION":47,
						"NORMAL":48,
						"TEXCOORD_0":49
					},
					"indices":50,
					"material":8
				}
			]
		},
		{
			"name":"mesh4.007",
			"primitives":[
				{
					"attributes":{
						"POSITION":51,
						"NORMAL":52,
						"TEXCOORD_0":53
					},
					"indices":54,
					"material":9
				},
				{
					"attributes":{
						"POSITION":55,
						"NORMAL":56,
						"TEXCOORD_0":57
					},
					"indices":58,
					"material":10
				}
			]
		}
	],
	"textures":[
		{
			"sampler":0,
			"source":0
		},
		{
			"sampler":0,
			"source":1
		},
		{
			"sampler":0,
			"source":2
		},
		{
			"sampler":0,
			"source":3
		},
		{
			"sampler":0,
			"source":4
		},
		{
			"sampler":0,
			"source":5
		},
		{
			"sampler":0,
			"source":6
		},
		{
			"sampler":0,
			"source":7
		},
		{
			"sampler":0,
			"source":8
		},
		{
			"sampler":0,
			"source":9
		}
	],
	"images":[
		{
			"mimeType":"image/png",
			"name":"out0_tex04",
			"uri":"out0_tex04.png"
		},
		{
			"mimeType":"image/png",
			"name":"out0_tex03",
			"uri":"out0_tex03.png"
		},
		{
			"mimeType":"image/png",
			"name":"out0_tex00",
			"uri":"out0_tex00.png"
		},
		{
			"mimeType":"image/png",
			"name":"out0_tex01",
			"uri":"out0_tex01.png"
		},
		{
			"mimeType":"image/png",
			"name":"out0_tex02",
			"uri":"out0_tex02.png"
		},
		{
			"mimeType":"image/png",
			"name":"out0_tex05",
			"uri":"out0_tex05.png"
		},
		{
			"mimeType":"image/png",
			"name":"out0_tex06",
			"uri":"out0_tex06.png"
		},
		{
			"mimeType":"image/png",
			"name":"out0_tex07",
			"uri":"out0_tex07.png"
		},
		{
			"mimeType":"image/png",
			"name":"out0_tex08",
			"uri":"out0_tex08.png"
		},
		{
			"mimeType":"image/png",
			"name":"out0_tex09",
			"uri":"out0_tex09.png"
		}
	],
	"accessors":[
		{
			"bufferView":0,
			"componentType":5126,
			"count":16,
			"max":[
				19.748119354248047,
				20.359989166259766,
				8.673404693603516
			],
			"min":[
				-3.0218801498413086,
				1.179995059967041,
				7.813390731811523
			],
			"type":"VEC3"
		},
		{
			"bufferView":1,
			"componentType":5126,
			"count":16,
			"type":"VEC3"
		},
		{
			"bufferView":2,
			"componentType":5126,
			"count":16,
			"type":"VEC2"
		},
		{
			"bufferView":3,
			"componentType":5123,
			"count":54,
			"type":"SCALAR"
		},
		{
			"bufferView":4,
			"componentType":5126,
			"count":79,
			"max":[
				19.748119354248047,
				20.359989166259766,
				8.673404693603516
			],
			"min":[
				-3.0218801498413086,
				1.1799921989440918,
				-11.686596870422363
			],
			"type":"VEC3"
		},
		{
			"bufferView":5,
			"componentType":5126,
			"count":79,
			"type":"VEC3"
		},
		{
			"bufferView":6,
			"componentType":5126,
			"count":79,
			"type":"VEC2"
		},
		{
			"bufferView":7,
			"componentType":5123,
			"count":282,
			"type":"SCALAR"
		},
		{
			"bufferView":8,
			"componentType":5126,
			"count":4,
			"max":[
				17.998119354248047,
				18.499984741210938,
				7.883402347564697
			],
			"min":[
				-1.4818801879882812,
				3.3499932289123535,
				7.813390731811523
			],
			"type":"VEC3"
		},
		{
			"bufferView":9,
			"componentType":5126,
			"count":4,
			"type":"VEC3"
		},
		{
			"bufferView":10,
			"componentType":5126,
			"count":4,
			"type":"VEC2"
		},
		{
			"bufferView":11,
			"componentType":5123,
			"count":6,
			"type":"SCALAR"
		},
		{
			"bufferView":12,
			"componentType":5126,
			"count":48,
			"max":[
				-7.171878814697266,
				25.349992752075195,
				16.35340118408203
			],
			"min":[
				-15.901878356933594,
				0,
				15.533388137817383
			],
			"type":"VEC3"
		},
		{
			"bufferView":13,
			"componentType":5126,
			"count":48,
			"type":"VEC3"
		},
		{
			"bufferView":14,
			"componentType":5126,
			"count":48,
			"type":"VEC2"
		},
		{
			"bufferView":15,
			"componentType":5123,
			"count":228,
			"type":"SCALAR"
		},
		{
			"bufferView":16,
			"componentType":5126,
			"count":29,
			"max":[
				-7.171878814697266,
				25.349992752075195,
				16.35340118408203
			],
			"min":[
				-15.901878356933594,
				-1.52587890625e-05,
				-5.496608734130859
			],
			"type":"VEC3"
		},
		{
			"bufferView":17,
			"componentType":5126,
			"count":29,
			"type":"VEC3"
		},
		{
			"bufferView":18,
			"componentType":5126,
			"count":29,
			"type":"VEC2"
		},
		{
			"bufferView":19,
			"componentType":5123,
			"count":120,
			"type":"SCALAR"
		},
		{
			"bufferView":20,
			"componentType":5126,
			"count":4,
			"max":[
				-7.171878814697266,
				25.349979400634766,
				-5.496591567993164
			],
			"min":[
				-15.901878356933594,
				-1.52587890625e-05,
				-5.496608734130859
			],
			"type":"VEC3"
		},
		{
			"bufferView":21,
			"componentType":5126,
			"count":4,
			"type":"VEC3"
		},
		{
			"bufferView":22,
			"componentType":5126,
			"count":4,
			"type":"VEC2"
		},
		{
			"bufferView":23,
			"componentType":5126,
			"count":48,
			"max":[
				15.048118591308594,
				4.369982719421387,
				3.2934062480926514
			],
			"min":[
				2.0281195640563965,
				-0.01001596450805664,
				-8.926589965820312
			],
			"type":"VEC3"
		},
		{
			"bufferView":24,
			"componentType":5126,
			"count":48,
			"type":"VEC3"
		},
		{
			"bufferView":25,
			"componentType":5126,
			"count":48,
			"type":"VEC2"
		},
		{
			"bufferView":26,
			"componentType":5123,
			"count":216,
			"type":"SCALAR"
		},
		{
			"bufferView":27,
			"componentType":5126,
			"count":8,
			"max":[
				-0.5118799209594727,
				0.8599953651428223,
				10.10340404510498
			],
			"min":[
				-1.561880111694336,
				0.01999521255493164,
				9.643404960632324
			],
			"type":"VEC3"
		},
		{
			"bufferView":28,
			"componentType":5126,
			"count":8,
			"type":"VEC3"
		},
		{
			"bufferView":29,
			"componentType":5126,
			"count":8,
			"type":"VEC2"
		},
		{
			"bufferView":30,
			"componentType":5123,
			"count":36,
			"type":"SCALAR"
		},
		{
			"bufferView":31,
			"componentType":5126,
			"count":8,
			"max":[
				18.858116149902344,
				0.8599953651428223,
				10.10340404510498
			],
			"min":[
				17.808116912841797,
				0.01999521255493164,
				9.643404960632324
			],
			"type":"VEC3"
		},
		{
			"bufferView":32,
			"componentType":5126,
			"count":8,
			"type":"VEC3"
		},
		{
			"bufferView":33,
			"componentType":5126,
			"count":8,
			"type":"VEC2"
		},
		{
			"bufferView":34,
			"componentType":5123,
			"count":36,
			"type":"SCALAR"
		},
		{
			"bufferView":35,
			"componentType":5126,
			"count":8,
			"max":[
				19.858116149902344,
				1.2799954414367676,
				16.223400115966797
			],
			"min":[
				-3.2018795013427734,
				-4.76837158203125e-07,
				9.253403663635254
			],
			"type":"VEC3"
		},
		{
			"bufferView":36,
			"componentType":5126,
			"count":8,
			"type":"VEC3"
		},
		{
			"bufferView":37,
			"componentType":5126,
			"count":8,
			"type":"VEC2"
		},
		{
			"bufferView":38,
			"componentType":5123,
			"count":30,
			"type":"SCALAR"
		},
		{
			"bufferView":39,
			"componentType":5126,
			"count":4,
			"max":[
				19.858116149902344,
				1.2799954414367676,
				16.223400115966797
			],
			"min":[
				-3.2018795013427734,
				0.42999982833862305,
				9.253403663635254
			],
			"type":"VEC3"
		},
		{
			"bufferView":40,
			"componentType":5126,
			"count":4,
			"type":"VEC3"
		},
		{
			"bufferView":41,
			"componentType":5126,
			"count":4,
			"type":"VEC2"
		},
		{
			"bufferView":42,
			"componentType":5123,
			"count":6,
			"type":"SCALAR"
		},
		{
			"bufferView":43,
			"componentType":5126,
			"count":24,
			"max":[
				33.478118896484375,
				0.11000299453735352,
				18.863399505615234
			],
			"min":[
				20.548118591308594,
				-0.02000570297241211,
				6.543405532836914
			],
			"type":"VEC3"
		},
		{
			"bufferView":44,
			"componentType":5126,
			"count":24,
			"type":"VEC3"
		},
		{
			"bufferView":45,
			"componentType":5126,
			"count":24,
			"type":"VEC2"
		},
		{
			"bufferView":46,
			"componentType":5123,
			"count":72,
			"type":"SCALAR"
		},
		{
			"bufferView":47,
			"componentType":5126,
			"count":13,
			"max":[
				33.478118896484375,
				0.11000299453735352,
				18.863399505615234
			],
			"min":[
				20.548118591308594,
				0.10999441146850586,
				6.543405532836914
			],
			"type":"VEC3"
		},
		{
			"bufferView":48,
			"componentType":5126,
			"count":13,
			"type":"VEC3"
		},
		{
			"bufferView":49,
			"componentType":5126,
			"count":13,
			"type":"VEC2"
		},
		{
			"bufferView":50,
			"componentType":5123,
			"count":36,
			"type":"SCALAR"
		},
		{
			"bufferView":51,
			"componentType":5126,
			"count":41,
			"max":[
				29.218116760253906,
				1.7099976539611816,
				14.903402328491211
			],
			"min":[
				24.91811752319336,
				0.5099959373474121,
				10.70340347290039
			],
			"type":"VEC3"
		},
		{
			"bufferView":52,
			"componentType":5126,
			"count":41,
			"type":"VEC3"
		},
		{
			"bufferView":53,
			"componentType":5126,
			"count":41,
			"type":"VEC2"
		},
		{
			"bufferView":54,
			"componentType":5123,
			"count":180,
			"type":"SCALAR"
		},
		{
			"bufferView":55,
			"componentType":5126,
			"count":45,
			"max":[
				29.218116760253906,
				1.1699986457824707,
				14.903402328491211
			],
			"min":[
				24.91811752319336,
				0.12999582290649414,
				10.673404693603516
			],
			"type":"VEC3"
		},
		{
			"bufferView":56,
			"componentType":5126,
			"count":45,
			"type":"VEC3"
		},
		{
			"bufferView":57,
			"componentType":5126,
			"count":45,
			"type":"VEC2"
		},
		{
			"bufferView":58,
			"componentType":5123,
			"count":120,
			"type":"SCALAR"
		}
	],
	"bufferViews":[
		{
			"buffer":0,
			"byteLength":192,
			"byteOffset":0,
			"target":34962
		},
		{
			"buffer":0,
			"byteLength":192,
			"byteOffset":192,
			"target":34962
		},
		{
			"buffer":0,
			"byteLength":128,
			"byteOffset":384,
			"target":34962
		},
		{
			"buffer":0,
			"byteLength":108,
			"byteOffset":512,
			"target":34963
		},
		{
			"buffer":0,
			"byteLength":948,
			"byteOffset":620,
			"target":34962
		},
		{
			"buffer":0,
			"byteLength":948,
			"byteOffset":1568,
			"target":34962
		},
		{
			"buffer":0,
			"byteLength":632,
			"byteOffset":2516,
			"target":34962
		},
		{
			"buffer":0,
			"byteLength":564,
			"byteOffset":3148,
			"target":34963
		},
		{
			"buffer":0,
			"byteLength":48,
			"byteOffset":3712,
			"target":34962
		},
		{
			"buffer":0,
			"byteLength":48,
			"byteOffset":3760,
			"target":34962
		},
		{
			"buffer":0,
			"byteLength":32,
			"byteOffset":3808,
			"target":34962
		},
		{
			"buffer":0,
			"byteLength":12,
			"byteOffset":3840,
			"target":34963
		},
		{
			"buffer":0,
			"byteLength":576,
			"byteOffset":3852,
			"target":34962
		},
		{
			"buffer":0,
			"byteLength":576,
			"byteOffset":4428,
			"target":34962
		},
		{
			"buffer":0,
			"byteLength":384,
			"byteOffset":5004,
			"target":34962
		},
		{
			"buffer":0,
			"byteLength":456,
			"byteOffset":5388,
			"target":34963
		},
		{
			"buffer":0,
			"byteLength":348,
			"byteOffset":5844,
			"target":34962
		},
		{
			"buffer":0,
			"byteLength":348,
			"byteOffset":6192,
			"target":34962
		},
		{
			"buffer":0,
			"byteLength":232,
			"byteOffset":6540,
			"target":34962
		},
		{
			"buffer":0,
			"byteLength":240,
			"byteOffset":6772,
			"target":34963
		},
		{
			"buffer":0,
			"byteLength":48,
			"byteOffset":7012,
			"target":34962
		},
		{
			"buffer":0,
			"byteLength":48,
			"byteOffset":7060,
			"target":34962
		},
		{
			"buffer":0,
			"byteLength":32,
			"byteOffset":7108,
			"target":34962
		},
		{
			"buffer":0,
			"byteLength":576,
			"byteOffset":7140,
			"target":34962
		},
		{
			"buffer":0,
			"byteLength":576,
			"byteOffset":7716,
			"target":34962
		},
		{
			"buffer":0,
			"byteLength":384,
			"byteOffset":8292,
			"target":34962
		},
		{
			"buffer":0,
			"byteLength":432,
			"byteOffset":8676,
			"target":34963
		},
		{
			"buffer":0,
			"byteLength":96,
			"byteOffset":9108,
			"target":34962
		},
		{
			"buffer":0,
			"byteLength":96,
			"byteOffset":9204,
			"target":34962
		},
		{
			"buffer":0,
			"byteLength":64,
			"byteOffset":9300,
			"target":34962
		},
		{
			"buffer":0,
			"byteLength":72,
			"byteOffset":9364,
			"target":34963
		},
		{
			"buffer":0,
			"byteLength":96,
			"byteOffset":9436,
			"target":34962
		},
		{
			"buffer":0,
			"byteLength":96,
			"byteOffset":9532,
			"target":34962
		},
		{
			"buffer":0,
			"byteLength":64,
			"byteOffset":9628,
			"target":34962
		},
		{
			"buffer":0,
			"byteLength":72,
			"byteOffset":9692,
			"target":34963
		},
		{
			"buffer":0,
			"byteLength":96,
			"byteOffset":9764,
			"target":34962
		},
		{
			"buffer":0,
			"byteLength":96,
			"byteOffset":9860,
			"target":34962
		},
		{
			"buffer":0,
			"byteLength":64,
			"byteOffset":9956,
			"target":34962
		},
		{
			"buffer":0,
			"byteLength":60,
			"byteOffset":10020,
			"target":34963
		},
		{
			"buffer":0,
			"byteLength":48,
			"byteOffset":10080,
			"target":34962
		},
		{
			"buffer":0,
			"byteLength":48,
			"byteOffset":10128,
			"target":34962
		},
		{
			"buffer":0,
			"byteLength":32,
			"byteOffset":10176,
			"target":34962
		},
		{
			"buffer":0,
			"byteLength":12,
			"byteOffset":10208,
			"target":34963
		},
		{
			"buffer":0,
			"byteLength":288,
			"byteOffset":10220,
			"target":34962
		},
		{
			"buffer":0,
			"byteLength":288,
			"byteOffset":10508,
			"target":34962
		},
		{
			"buffer":0,
			"byteLength":192,
			"byteOffset":10796,
			"target":34962
		},
		{
			"buffer":0,
			"byteLength":144,
			"byteOffset":10988,
			"target":34963
		},
		{
			"buffer":0,
			"byteLength":156,
			"byteOffset":11132,
			"target":34962
		},
		{
			"buffer":0,
			"byteLength":156,
			"byteOffset":11288,
			"target":34962
		},
		{
			"buffer":0,
			"byteLength":104,
			"byteOffset":11444,
			"target":34962
		},
		{
			"buffer":0,
			"byteLength":72,
			"byteOffset":11548,
			"target":34963
		},
		{
			"buffer":0,
			"byteLength":492,
			"byteOffset":11620,
			"target":34962
		},
		{
			"buffer":0,
			"byteLength":492,
			"byteOffset":12112,
			"target":34962
		},
		{
			"buffer":0,
			"byteLength":328,
			"byteOffset":12604,
			"target":34962
		},
		{
			"buffer":0,
			"byteLength":360,
			"byteOffset":12932,
			"target":34963
		},
		{
			"buffer":0,
			"byteLength":540,
			"byteOffset":13292,
			"target":34962
		},
		{
			"buffer":0,
			"byteLength":540,
			"byteOffset":13832,
			"target":34962
		},
		{
			"buffer":0,
			"byteLength":360,
			"byteOffset":14372,
			"target":34962
		},
		{
			"buffer":0,
			"byteLength":240,
			"byteOffset":14732,
			"target":34963
		}
	],
	"samplers":[
		{
			"magFilter":9729,
			"minFilter":9987
		}
	],
	"buffers":[
		{
			"byteLength":14972,
			"uri":"PC_Tex.bin"
		}
	]
}
